<?xml version="1.0" encoding="UTF-8" standalone="no"?>
<!-- Created with Inkscape (http://www.inkscape.org/) -->

<svg
   width="512"
   height="512"
   viewBox="0 0 512 512"
   version="1.1"
   id="svg1"
   xml:space="preserve"
   xmlns="http://www.w3.org/2000/svg"
   xmlns:svg="http://www.w3.org/2000/svg"><defs
     id="defs1" /><g
     id="layer1"><g
       id="g443819"
       transform="translate(18.286085,16.537013)"><path
         style="fill:#666666"
         d="m 231.43953,243.89212 24.69941,4.2861 v 180.94902 h -22.32882 z"
         id="path443818" /><g
         id="g443817"><path
           style="fill:#a78d00;fill-opacity:1"
           d="m 199.26284,126.24774 3.32002,86.35626 50.76145,8.63287 -0.13786,-87.96186 z"
           id="path443804" /><path
           style="fill:#a78d00;fill-opacity:1"
           d="m 278.92207,137.24498 0.24957,66.64916 5.39526,-7.75174 0.27168,-59.34781 z"
           id="path443805" /><path
           style="fill:#999999"
           d="m 169.21188,72.296326 46.05927,-22.105068 95.0002,8.938747 -36.80375,23.863152 z"
           id="path443806" /><path
           style="fill:#b3b3b3"
           d="m 273.52882,82.784413 36.59639,-23.688422 -0.0301,18.964153 -36.78003,28.313546 z"
           id="path443807" /><path
           style="fill:#666666"
           d="m 273.32232,106.34268 0.22385,-23.421347 -104.3139,-10.613789 -0.0172,20.890221 z"
           id="path443808" /><path
           style="fill:#999999"
           d="m 310.10313,74.19717 0.0181,3.840904 -36.82877,28.256516 -104.01271,-13.271572 -0.0396,-9.551744 -29.14753,14.965898 147.15756,17.435938 48.05257,-39.012042 z"
           id="path443809" /><path
           style="fill:#b3b3b3"
           d="m 335.34467,76.766829 -0.40388,19.894079 -48.10098,42.611572 0.35869,-23.40843 z"
           id="path443810" /><path
           style="fill:#666666"
           d="m 287.2048,115.83241 -0.33843,23.40656 -145.8365,-19.45221 -0.94671,-21.480616 z"
           id="path443811" /><path
           style="fill:#999999"
           d="m 308.54786,119.85676 -3.08146,92.71683 -34.0777,39.35826 1.32303,-114.66161 8.61944,1.12575 -1.99706,84.63115 20.54003,-21.59376 2.25519,-75.84988 z"
           id="path443812" /><path
           style="fill:#4d4d4d"
           d="m 299.81076,201.59562 -17.25693,-3.07581 0.64934,-59.83472 3.56292,0.47877 15.37003,-13.37235 z"
           id="path443813" /><path
           style="fill:#666666"
           d="m 299.84531,201.51973 -20.32238,21.10361 0.28876,-21.61078 3.14445,-4.49153 z"
           id="path443814" /><g
           id="g443818"><path
             style="fill:#4d4d4d"
             d="m 271.31732,251.8165 1.40652,-114.54894 -20.67245,-2.76847 0.0475,93.95209 -57.4693,-9.76784 -3.84334,-92.33772 -19.62237,-2.62232 6.31573,111.59721 z"
             id="path443815" /></g><path
           style="fill:#666666"
           d="m 203.70089,211.4017 -9.041,7.3349 57.4878,9.82414 0.16337,-8.78363 z"
           id="path443816" /><path
           style="fill:#666666"
           d="m 194.64166,218.797 9.19445,-7.37679 -3.32205,-83.71145 -9.77441,-1.34613 z"
           id="path443817" /></g></g><g
       id="g4548"
       transform="matrix(0.65602532,0,0,0.65602532,98.084657,194.14284)"><path
         style="fill:#000000;stroke-width:2.31164"
         d="m 155.89539,356.33806 c 0.57902,-14.8404 1.65618,-28.88362 2.39364,-31.20716 l 1.34084,-4.22467 H 124.71112 89.792344 l 1.5191,-18.79299 1.51909,-18.793 12.058416,-36.10849 12.05845,-36.10848 24.61022,-0.65568 24.61022,-0.6557 -1.02833,2.96734 c -2.0305,5.85914 -3.16977,28.67229 -1.5618,31.27404 l 1.64173,2.6564 2.96473,-1.8323 2.96475,-1.8323 2.45471,-16.53883 2.45471,-16.5388 h 25.33193 25.33194 l -1.32603,67.61552 c -0.7293,37.18853 -1.93116,76.19748 -2.6708,86.68655 l -1.34479,19.07104 H 199.44406 177.5075 l -4.93873,-2.64313 -4.9387,-2.64311 -0.88106,2.64311 c -0.48457,1.45372 -3.36175,2.64313 -6.39372,2.64313 h -5.51269 z m 21.39091,-27.61263 7.23049,3.73901 h 17.45211 17.45211 v -20.43558 c 0,-11.23955 0.68348,-37.76563 1.51884,-58.94686 l 1.51884,-38.51127 H 201.2909 c -11.64229,0 -21.28007,0.78018 -21.41732,1.73373 -0.13731,0.95355 -1.43751,8.49528 -2.88955,16.7594 l -2.64003,15.02567 -9.93366,0.71617 -9.93363,0.71614 0.68707,-6.49525 0.68709,-6.49527 -17.00622,-1.51819 c -9.35341,-0.83501 -18.14342,-2.65543 -19.53337,-4.04538 l -2.52715,-2.52717 13.75426,-0.48429 c 7.56485,-0.26635 17.13572,-0.52641 21.26861,-0.57791 l 7.51436,-0.0936 0.0301,-2.31165 c 0.0162,-1.2714 0.59166,-4.39211 1.27808,-6.93492 l 1.24806,-4.62328 -21.30208,1.15582 -21.30207,1.15582 -5.25372,15.60358 -5.25369,15.60358 h 3.31557 c 4.92869,0 4.01328,4.87365 -1.16999,6.22913 l -4.48558,1.173 -3.60517,10.58057 c -1.98286,5.81932 -3.605171,10.9154 -3.605171,11.32461 0,0.40921 15.492281,0.74403 34.427301,0.74403 h 34.4273 l 1.33058,3.46746 1.33061,3.46746 h 11.82339 11.82338 l -0.95223,2.88955 -0.95226,2.88955 -11.66838,0.6888 -11.66836,0.6888 -1.61868,14.33687 c -0.89028,7.88529 -2.18584,17.45759 -2.87901,21.2718 l -1.26033,6.93492 3.33843,-4.31692 3.33845,-4.31694 z m 61.97261,49.39393 c -1.78278,-8.78963 -3.88508,-156.0536 -2.31698,-162.30143 l 1.4734,-5.87049 h 53.76746 53.76744 l 8.4177,23.69433 c 4.62973,13.03188 8.40804,25.30669 8.39627,27.27737 -0.0115,1.97067 0.95647,4.57127 2.15168,5.7791 1.19523,1.20783 6.98243,15.71916 12.86045,32.2474 l 10.68732,30.05134 1.05718,17.33731 c 0.58145,9.53552 1.29574,21.49826 1.58731,26.58387 l 0.53015,9.24657 -55.88862,0.61864 -55.8886,0.61862 -1.47372,-4.64332 c -0.81055,-2.55381 -0.78078,-5.95292 0.0661,-7.55355 0.84697,-1.60062 -1.24176,0.47054 -4.64161,4.6026 l -6.18154,7.51283 h -13.65826 -13.65827 z m 29.62434,-50.01516 3.94597,-4.36024 -1.5949,-17.60035 -1.59491,-17.60036 h 2.54916 c 3.81534,0 6.69925,6.73675 8.41151,19.64895 0.84296,6.35702 2.06852,14.41887 2.72346,17.91523 l 1.19077,6.35701 h 49.70926 49.70924 l -1.17138,-2.88955 c -0.64426,-1.58926 -5.64214,-16.1526 -11.10642,-32.36298 l -9.93504,-29.47343 h -5.2677 -5.2677 v -4.62328 -4.62329 h 3.26223 3.26226 l -7.23368,-21.96059 -7.23366,-21.96059 h -51.82219 -51.82217 l 1.47002,10.72502 c 0.80852,5.89878 1.47004,15.78104 1.47004,21.96059 v 11.23557 h 4.62328 4.62329 v 4.62329 4.62328 h -4.77685 -4.77682 l 0.73145,6.1753 0.73147,6.17529 10.40239,2.49336 10.40239,2.49336 -0.48635,2.31164 c -0.2675,1.2714 -2.8681,2.60286 -5.7791,2.95881 -2.91103,0.35592 -7.66518,1.16391 -10.56476,1.79554 l -5.272,1.14838 1.03654,6.2952 c 0.5701,3.46238 1.12207,12.27658 1.22663,19.58714 l 0.19001,13.29194 h 10.04411 10.0441 z m 26.37495,-40.78741 c -0.52405,-4.48877 -0.46448,-8.64972 0.13245,-9.24657 0.59682,-0.59684 4.95142,-1.08517 9.67683,-1.08517 h 8.59168 l 1.39387,5.20119 c 0.76664,2.86066 1.40807,7.02161 1.42543,9.24656 l 0.0317,4.04538 H 306.36067 296.2112 Z m -6.48795,-41.34983 c 0,-1.80313 -0.69335,-5.08525 -1.54078,-7.2936 l -1.54078,-4.01519 15.47815,1.58579 c 20.94976,2.14636 29.21296,3.94405 29.21296,6.35542 v 2.02269 h -11.55821 -11.55821 v 2.31164 2.31164 h -9.24656 -9.24657 z"
         id="path4538" /><path
         style="mix-blend-mode:normal;fill:#ffcc00;stroke-width:0.627451"
         d="m 245.11496,325.23573 c -0.22499,-3.67722 -0.41139,-8.97133 -0.41423,-11.76471 -0.005,-4.84379 -0.86213,-14.4584 -1.61046,-18.06296 -0.31764,-1.53 -0.12413,-1.75012 2.04415,-2.32524 1.31724,-0.34939 5.54218,-1.18683 9.38875,-1.86097 3.84656,-0.67414 7.55526,-1.52621 8.24155,-1.8935 1.20711,-0.64602 2.42266,-3.64424 1.75013,-4.31677 -0.1818,-0.1818 -4.74253,-1.40135 -10.13496,-2.71012 -5.39243,-1.30877 -9.93348,-2.50864 -10.09122,-2.66639 -0.36677,-0.36677 -1.43593,-7.71866 -1.45252,-9.98801 l -0.0126,-1.72549 h 4.70588 4.70588 v -4.70588 -4.70589 h -4.70588 -4.70588 l -0.006,-8.94117 c -0.007,-9.49412 -0.79633,-20.47051 -2.12102,-29.4902 l -0.80633,-5.49019 h 51.53168 51.53167 l 6.80417,20.86274 c 3.7423,11.47451 6.9402,21.35686 7.10646,21.96078 0.25934,0.94207 -0.15374,1.09804 -2.90816,1.09804 h -3.21043 v 4.70589 4.70588 h 5.2662 c 4.42904,0 5.33635,0.17455 5.70745,1.09804 0.24267,0.60392 4.34954,12.6891 9.12635,26.85597 4.77681,14.16685 9.52991,28.07274 10.56245,30.90196 l 1.87734,5.14403 H 334.1161 c -46.28403,0 -49.18805,-0.0644 -49.49714,-1.09804 -0.47262,-1.5805 -2.03925,-11.01149 -3.51773,-21.17647 C 278.68699,293.04849 276.252,288 270.66042,288 c -1.48672,0 -1.57044,0.15871 -1.24117,2.35294 0.19419,1.29412 0.96699,9.32991 1.71732,17.85731 l 1.36425,15.50438 -3.70139,4.05864 -3.70139,4.05864 -9.787,0.0448 -9.787,0.0448 z m 71.52766,-34.88279 c -0.22289,-2.84706 -0.90499,-7.01176 -1.51577,-9.2549 l -1.11052,-4.07843 h -8.45915 c -4.65253,0 -8.99556,0.21914 -9.65119,0.48697 -1.11194,0.45424 -1.16777,1.03302 -0.83068,8.61235 0.19875,4.46895 0.54008,8.41452 0.75849,8.76793 0.24515,0.39665 4.38032,0.64255 10.8056,0.64255 h 10.40847 z m -9.19164,-43.13725 v -2.50981 h 11.60784 11.60785 v -1.55251 c 0,-2.00752 -2.02631,-3.05725 -8.47106,-4.38845 -7.44579,-1.53797 -36.70541,-4.73129 -36.70541,-4.00593 0,0.14569 0.56981,1.88613 1.26626,3.86764 0.69644,1.98151 1.44255,5.28937 1.65801,7.3508 l 0.39175,3.74806 h 9.32238 9.32238 z"
         id="path4546" /><path
         style="mix-blend-mode:normal;fill:#ffcc00;stroke-width:0.627451"
         d="m 177.56863,328.47059 c -3.62353,-1.86266 -6.9357,-3.40113 -7.36039,-3.41882 -0.42467,-0.0177 -1.82048,1.37204 -3.10177,3.08828 -1.2813,1.71625 -2.43946,3.01061 -2.57371,2.87637 -0.13424,-0.13424 0.20329,-3.05798 0.75007,-6.4972 0.82098,-5.16386 4.12893,-31.45894 4.12893,-32.82101 0,-0.22005 4.02353,-0.58925 8.94118,-0.82045 4.91765,-0.23119 10.16151,-0.58485 11.65304,-0.7859 2.79093,-0.37621 3.23703,-0.89468 4.25311,-4.94306 l 0.38676,-1.54096 h -11.88768 -11.88768 l -1.15447,-3.3964 -1.15448,-3.3964 -34.03277,-0.21144 c -18.71802,-0.1163 -34.21439,-0.39323 -34.43638,-0.61541 -0.43993,-0.44034 5.72399,-19.83973 6.68431,-21.03718 0.32431,-0.4044 1.69451,-0.92193 3.04487,-1.15007 3.07147,-0.51892 5.62941,-2.47698 5.62941,-4.30923 0,-2.01427 -1.17634,-2.90347 -3.84104,-2.90347 h -2.33515 l 5.05737,-15.21569 c 2.78155,-8.36863 5.08884,-15.25057 5.12731,-15.2932 0.11079,-0.12277 38.1438,-2.13927 40.14312,-2.12837 1.56826,0.009 1.74556,0.19066 1.38408,1.42157 -0.22803,0.77647 -0.85548,3.70511 -1.39432,6.50809 l -0.97972,5.09633 -19.8331,0.46389 c -10.90821,0.25514 -20.34591,0.65359 -20.97267,0.88544 -1.02755,0.38012 -0.96157,0.59209 0.67124,2.15642 2.38897,2.28877 9.73127,3.807 25.3854,5.24914 l 11.78507,1.0857 -0.30687,1.59122 c -0.16878,0.87517 -0.49624,3.80908 -0.7277,6.51979 l -0.42083,4.92857 6.51126,-0.44487 c 3.58119,-0.24468 8.18985,-0.62724 10.24146,-0.85014 l 3.73021,-0.40527 2.73498,-15.68627 c 1.50425,-8.62745 2.96398,-15.91637 3.24385,-16.19759 0.63948,-0.64255 19.95122,-1.64159 32.20782,-1.66619 8.40385,-0.0169 9.25468,0.0824 9.25253,1.07946 -0.001,0.60393 -0.42163,11.40393 -0.93407,24 -1.28418,31.56582 -2.19016,64.37714 -2.19596,79.52942 l -0.005,12.70588 -17.41176,-0.0322 -17.41177,-0.0322 z"
         id="path4547" /></g><g
       id="g4549"
       transform="matrix(0.79270189,0,0,0.79270189,56.491087,-40.740586)"><g
         id="g4547"
         transform="translate(-5.3969056,2.8245634)"><path
           style="fill:#000000"
           d="m 49.254263,466.01983 c -0.584957,-1.67801 -1.470874,-3.05092 -1.968705,-3.05092 -0.497831,0 -1.684965,-1.8 -2.638075,-4 -0.95311,-2.2 -2.076773,-4 -2.497028,-4 -1.475652,0 -0.736513,-3.62374 2.147583,-10.52885 l 2.911682,-6.97115 2.588318,-1.30457 c 2.799324,-1.41092 3.326884,-2.77449 1.338317,-3.45912 l -1.25,-0.43035 1.729578,-4.9797 c 1.683922,-4.84824 4.943386,-12.29943 6.704353,-15.32626 0.479974,-0.825 1.437774,-3.41115 2.128445,-5.74701 0.690671,-2.33585 2.07757,-5.59835 3.081996,-7.25 l 1.826231,-3.00299 h 27.002913 27.002909 l -0.14666,1.75 c -0.31788,3.79322 0.21217,8.25 0.98119,8.25 0.44602,0 1.3876,-2.25 2.09241,-5 l 1.28146,-5 h 26.40759 26.40759 l 0.15753,5.25 c 0.0866,2.8875 0.13664,5.8125 0.11111,6.5 -0.0255,0.6875 0.49959,1.25 1.16695,1.25 h 1.21337 l 0.92552,-6.25 0.92552,-6.25 h 26.5 26.5 l 0.076,7 c 0.0626,5.76114 -2.16821,64.42408 -2.48126,65.25 -0.0521,0.1375 -5.45057,0.25 -11.99657,0.25 h -11.90181 l -0.67015,-6.25 c -0.36858,-3.4375 -0.89309,-7.0375 -1.16557,-8 l -0.49543,-1.75 h -1.80349 -1.80348 l -0.69162,7.92857 -0.69162,7.92857 h -12.4375 -12.4375 v -2.86955 c 0,-1.57826 -0.45,-3.14767 -1,-3.48759 -0.55,-0.33992 -1.0069,-2.05398 -1.01532,-3.80902 -0.008,-1.75504 -0.38671,-3.77652 -0.84065,-4.49217 l -0.82534,-1.30119 1.83178,-10.69881 c 1.00747,-5.88435 1.83577,-11.71131 1.84065,-12.94881 l 0.009,-2.25 h -2.5 -2.5 v -1.94099 c 0,-1.06754 -0.44933,-2.21868 -0.99851,-2.55809 l -0.9985,-0.61711 0.2485,2.3081 0.24851,2.30809 -3.54533,0.29816 -3.54533,0.29816 -3.87085,20.95184 -3.87086,20.95184 h -2.83382 -2.83381 l -0.0317,-2.75 -0.0317,-2.75 -2.05172,2.75 -2.05173,2.75 h -6.8698 -6.8698 l -1.84067,-4.25 c -1.01237,-2.3375 -2.41842,-6.05026 -3.12454,-8.25057 l -1.28385,-4.00057 3.07774,-12.19094 c 1.69275,-6.70501 3.07774,-12.44226 3.07774,-12.74943 0,-0.30717 -1.35,-0.55849 -3,-0.55849 h -3 v -1.80887 c 0,-0.99488 -0.6141,-2.64869 -1.36465,-3.67514 l -1.36465,-1.86627 -1.2129,3.67514 -1.21291,3.67514 h -1.87043 -1.87043 l 1.0934,3.1365 1.09339,3.13651 -4.85558,17.86349 -4.85557,17.8635 h -6.70651 -6.706499 l -0.58333,-1.25 -0.58334,-1.25 -0.58333,1.25 -0.58333,1.25 H 80.375602 68.531515 l -2.086584,-2.65267 c -1.147622,-1.45896 -2.192783,-2.47146 -2.32258,-2.25 -0.129798,0.22147 -0.732575,1.30267 -1.339506,2.40267 l -1.103509,2 -5.680757,0.30092 -5.680757,0.30093 z m 6.007825,-19.58073 c 3.286816,-8.15458 7.719741,-11.57536 5.460359,-4.21362 l -0.998946,3.25486 0.91476,2.74429 0.914761,2.74428 11.666666,-0.0217 11.666667,-0.0216 1.5,-3.17662 c 0.825,-1.74714 2.0625,-3.3499 2.75,-3.56169 l 1.25,-0.38507 v 3.58333 3.58334 h 5.439486 5.439489 l 2.63327,-8.75 c 1.4483,-4.8125 3.51329,-11.675 4.58887,-15.25 1.07558,-3.575 2.19817,-7.2875 2.49463,-8.25 l 0.53903,-1.75 h -5.95238 -5.952384 l -1.658935,2.53186 -1.65894,2.53187 -0.95607,-0.59088 c -0.52583,-0.32499 -0.95607,-1.46433 -0.95607,-2.53187 v -1.94098 h -7.499996 -7.5 v -1.4349 c 0,-0.7892 0.438862,-2.5892 0.975249,-4 l 0.975249,-2.5651 16.274748,-0.002 16.274759,-0.002 1.61875,-5.49812 1.61875,-5.49812 -25.618749,0.004 -25.618756,0.004 -1.75,4.25676 c -0.9625,2.34122 -1.75,4.81453 -1.75,5.49625 v 1.2395 h 6.5 6.5 v 0.89301 c 0,1.34527 -2.813329,2.16481 -9.610269,2.79951 l -6.134919,0.57289 -3.135492,7.61729 c -1.72452,4.18952 -3.131853,7.9548 -3.127406,8.3673 0.0044,0.4125 7.433086,0.75 16.508086,0.75 9.075,0 16.5,0.15785 16.5,0.35077 0,0.19293 -0.494021,1.76793 -1.097825,3.5 l -1.097825,3.14923 H 66.927312 49.66392 l -2.041635,5.25 c -1.1229,2.8875 -2.368876,6.06454 -2.768835,7.0601 l -0.7272,1.8101 4.755786,-0.3101 4.755785,-0.3101 z m 86.274112,1.52981 1.04581,-3 h 1.90217 1.90218 v 3 3 h 1.5 c 0.825,0 1.51878,-0.1125 1.54173,-0.25 0.023,-0.1375 1.93546,-9.475 4.25,-20.75 l 4.20827,-20.5 3.25,-0.31336 c 3.75412,-0.36197 3.69044,-0.19674 1.81015,-4.69692 l -1.43985,-3.44604 1.06142,-0.65599 1.06141,-0.65599 2.87843,3.07991 c 1.58314,1.69396 2.87844,3.77933 2.87844,4.63415 v 1.55424 h 1.44098 c 1.88559,0 2.17404,-0.60237 2.99287,-6.25 l 0.68869,-4.75 h -24.85387 -24.85387 l -1.2074,4.51435 c -0.66407,2.48289 -1.2074,4.95789 -1.2074,5.5 v 0.98565 h 7.08789 7.0879 l -0.6532,3.86629 -0.65321,3.86629 2.16592,0.5664 2.16593,0.5664 -0.65964,1.06731 c -0.36279,0.58702 -1.47725,1.06731 -2.47656,1.06731 h -1.81694 l -3.62405,14.47694 c -1.99322,7.96232 -3.62404,14.93732 -3.62404,15.5 v 1.02306 h 6.55201 6.55202 z m 55.27772,-0.3399 c 0.26645,-1.73806 0.76019,-5.32005 1.0972,-7.95998 l 0.61274,-4.79987 5.18125,0.29987 5.18125,0.29988 -0.24056,1.22165 -0.24055,1.22166 2.55565,-0.97166 c 3.12067,-1.18647 10.6417,-1.22227 15.58205,-0.0742 l 3.6566,0.84976 0.5982,-12.62362 c 0.32901,-6.94299 0.8153,-15.88612 1.08065,-19.87362 l 0.48245,-7.25 H 207.3736 182.38636 v 0.97052 c 0,0.87628 -6.19393,41.00847 -7.51774,48.70956 l -0.54666,3.18008 11.00375,-0.02 11.00375,-0.02 z m -1.06941,-26.4101 c 0.34091,-2.0625 0.62479,-4.5375 0.63084,-5.5 l 0.011,-1.75 h 1.89301 c 1.04115,0 2.15203,-0.675 2.46861,-1.5 l 0.57561,-1.5 h -4.48767 -4.48767 l 0.65731,-2.75 c 0.98013,-4.1006 1.17136,-4.25 5.43981,-4.25 h 3.94099 v 3 3 h 3.93357 3.93358 l 0.31642,-2.75 0.31643,-2.75 h 4.5 4.5 v 3 3 l -4.25,0.3075 -4.25,0.30749 v 1.44251 1.4425 h 1.5 1.5 v 5.5 5.5 h -2.5 -2.5 v -1.5 -1.5 h -3.89302 -3.89301 l -0.5756,1.5 -0.57561,1.5 h -2.66222 -2.66223 z m 34.03486,28.16821 c 0.33384,-0.86998 0.60699,-2.66394 0.60699,-3.98658 v -2.40479 l -3.62213,-1.51342 -3.62212,-1.51342 -6.12788,0.0153 c -3.37033,0.008 -6.62535,0.34592 -7.23336,0.75 -0.60802,0.40408 -1.34025,2.87219 -1.62717,5.48469 l -0.52167,4.75 h 10.77017 10.77018 z m 24.25895,8.92622 c -0.35858,-5.86055 -0.65196,-15.31055 -0.65196,-21 v -10.34443 h -6.86071 -6.86071 l -0.6306,-5.25 c -0.81213,-6.76129 -0.82417,-18.61906 -0.023,-22.625 l 0.625,-3.125 h 26.2585 26.2585 l 0.6,6.25 0.60001,6.25 -1.25697,9 -1.25696,9 -3.14223,0.30707 -3.14223,0.30707 -0.46831,-1.80707 -0.46831,-1.80707 -0.116,1.75 -0.116,1.75 h -1.865 -1.865 l 0.0299,18.75 c 0.0164,10.3125 -0.29965,19.7625 -0.70239,21 l -0.73225,2.25 h -2.93261 -2.93261 v -1.94099 c 0,-1.06754 -0.402,-2.18943 -0.89333,-2.49308 l -0.89333,-0.55211 -0.62572,2.49309 -0.62573,2.49309 h -7.32898 -7.32898 z m 16.16446,-10.59443 0.31642,-2.75 h 1.85412 1.85412 l 0.65892,3 0.65891,3 h 1.55504 1.55503 l -0.65646,-14.75 c -0.36106,-8.1125 -0.924,-17.5625 -1.25099,-21 l -0.59453,-6.25 h 3.6165 3.6165 v -1 c 0,-0.55 -0.35298,-1 -0.7844,-1 -0.7698,0 -4.2156,-5.23482 -4.2156,-6.40429 0,-1.38471 2.16142,-0.39287 5.4652,2.50788 1.94414,1.70698 3.5348,3.73198 3.5348,4.5 v 1.39641 h 2 2 l -0.0137,-3.25 c -0.008,-1.7875 -0.28499,-4.2625 -0.61663,-5.5 l -0.60298,-2.25 h -24.38333 -24.38336 l -0.011,1.75 c -0.006,0.9625 -0.28993,3.4375 -0.63084,5.5 l -0.61984,3.75 h 7.63084 7.63085 v 4 4 h 1.94098 c 1.06754,0 2.23782,0.48029 2.60061,1.06731 l 0.65964,1.0673 -2.10062,0.54933 -2.10061,0.54932 v 15.42906 15.42906 l 6.75,-0.29569 6.75,-0.29569 z m 29.13288,18.5 c -0.0279,-1.5125 -1.04039,-13.62019 -2.25,-26.90597 l -2.1993,-24.15596 0.93671,-9.59404 0.93672,-9.59403 h 11.18828 11.18829 l 0.625,3.125 c 0.34375,1.71875 0.63114,4.53125 0.63865,6.25 0.0183,4.18118 1.02514,7.71905 2.02157,7.10323 0.64045,-0.39583 2.12825,-9.63592 2.41171,-14.97823 l 0.0531,-1 13.7705,-0.27836 13.7705,-0.27835 0.58649,1.52835 c 0.7536,1.96387 2.37251,1.98321 2.37251,0.0284 v -1.5 h 4.04965 4.04966 l 2.99716,1.54989 2.99715,1.54988 3.10683,-1.54988 3.10682,-1.54989 h 4.266 4.26599 l 1.68545,5.0744 1.68544,5.07441 1.39492,-2.68872 c 0.76721,-1.47879 1.39493,-3.76227 1.39493,-5.0744 v -2.38569 h 11.45985 11.45986 l 1.21274,4.04774 1.21273,4.04774 4.57741,-0.29774 4.57741,-0.29774 0.92636,-3.75 0.92637,-3.75 h 10.83624 10.83624 l 2.54533,5.75 c 1.39993,3.1625 6.87554,15.7982 12.16802,28.07935 l 9.62269,22.32934 -0.93063,0.67066 c -0.51184,0.36885 -1.0609,1.28648 -1.22013,2.03916 -0.15923,0.75269 -1.45014,2.89019 -2.86869,4.75 -1.41855,1.85982 -2.27013,3.38149 -1.8924,3.38149 0.37773,0 -0.2745,1.35 -1.4494,3 l -2.13619,3 h -6.49765 c -3.57371,0 -7.34075,-0.45122 -8.37122,-1.00271 l -1.87357,-1.0027 -0.6197,1.0027 c -0.34084,0.55149 -1.90699,1.00271 -3.48033,1.00271 h -2.86061 l -1.66073,-5 -1.66074,-5 h -3.40058 -3.40058 l -0.63802,2.75 c -0.35091,1.5125 -1.26986,3.7625 -2.04211,5 l -1.40408,2.25 h -11.85531 -11.85531 l -0.99634,-3.9253 -0.99635,-3.92529 1.07471,-1.07471 1.07471,-1.0747 h -1.68095 -1.68095 l -0.63802,2.75 c -0.35091,1.5125 -1.26986,3.7625 -2.04211,5 l -1.40408,2.25 h -31.4579 -31.45789 l -0.6321,-2.51848 c -0.34765,-1.38516 -0.41863,-3.63516 -0.15772,-5 l 0.47437,-2.48152 h -0.86133 c -0.47373,0 -0.86132,-1.35 -0.86132,-3 0,-6.65063 -2.42961,-1.81806 -3.5193,7 -0.10195,0.825 -0.50714,2.5125 -0.90042,3.75 l -0.71506,2.25 h -3.73261 -3.73261 l -1.325,-1.25 -1.325,-1.25 -0.45834,1.25 -0.45833,1.25 h -6.41667 -6.41666 z m 13.5507,-17.25 -0.63478,-2 1.31739,0.0222 c 0.72456,0.0122 2.44239,0.90223 3.81739,1.97777 l 2.5,1.95553 2.81127,0.0222 2.81127,0.0222 -0.63253,-4.25 c -0.34789,-2.3375 -1.62189,-11.225 -2.83111,-19.75 l -2.19857,-15.5 -4.23017,-0.3075 -4.23016,-0.3075 v -1.33541 c 0,-1.57532 2.17369,-2.54949 5.68877,-2.54949 h 2.5252 l -0.60699,-1.58179 c -0.33384,-0.86998 -0.60698,-2.89498 -0.60698,-4.5 v -2.91821 h -10 c -5.5,0 -9.99963,0.1125 -9.99916,0.25 4.6e-4,0.1375 1.12508,11.275 2.49916,24.75 1.37407,13.475 2.49869,25.2875 2.49915,26.25 l 8.5e-4,1.75 h 5.06738 5.06739 z m 85.12478,0.25 c -0.28049,-0.9625 -1.91165,-6.7 -3.62478,-12.75 -1.71314,-6.05 -3.3443,-11.7875 -3.62479,-12.75 l -0.50999,-1.75 h -1.8736 c -1.03047,0 -2.17043,-0.48029 -2.53322,-1.06731 l -0.65964,-1.06731 2.10062,-0.54932 c 1.15534,-0.30213 2.10062,-0.65469 2.10062,-0.78347 0,-0.12878 -0.4257,-1.5388 -0.946,-3.13337 -0.52029,-1.59457 -1.88935,-6.16172 -3.04234,-10.14922 l -2.09636,-7.25 -3.20765,0.015 c -1.76421,0.008 -5.00765,0.65017 -7.20765,1.42642 l -4,1.41136 -2.21482,-1.42642 c -1.21815,-0.78452 -3.81679,-1.42641 -5.77475,-1.42641 h -3.55994 l -1.04977,2.75 -1.04977,2.75 -2.00888,-2.75 -2.00889,-2.75 h -11.91659 -11.91659 l 0.0255,1.75 c 0.014,0.9625 1.50913,10.71052 3.3225,21.66226 l 3.29702,19.91227 2.24175,0.82927 2.24175,0.82928 -0.62326,1.00846 c -0.34279,0.55465 -1.19376,1.00846 -1.89105,1.00846 h -1.26779 l 0.44031,3 0.4403,3 h 31.45389 31.45389 z m -44.09338,-14.5 c -1.85938,-8.2566 -4.5314,-22.37809 -4.5314,-23.94823 v -1.87964 l 8.65134,0.28893 8.65134,0.28894 1.85959,8 1.85958,8 2.09986,1.75 2.09985,1.75 h 6.19809 6.19809 l 1.94113,1.46819 1.94113,1.4682 -6,0.2413 c -3.3,0.13272 -7.48332,0.25953 -9.29625,0.28181 l -3.29625,0.0405 0.5653,2.25 0.5653,2.25 h -9.5 -9.5 z m 76.4686,15.77879 c 0,-0.25917 -1.35,-4.1703 -3,-8.6914 -1.65,-4.52111 -3,-8.80907 -3,-9.5288 v -1.30859 h 3.53138 3.53138 l 0.57561,1.5 0.5756,1.5 h 5.32791 c 2.93036,0 6.50929,0.44915 7.95319,0.99812 l 2.62527,0.99813 -0.61919,1.00187 -0.61919,1.00188 h -6.4096 -6.4096 l 0.57561,1.5 0.5756,1.5 h 4.47904 4.47904 l 2.11244,5 2.11244,5 h 1.30153 c 1.60755,0 1.61168,0.13048 -0.15411,-4.87428 l -1.45564,-4.12572 h 1.98703 1.98702 l 0.63135,1.75 c 0.34723,0.9625 1.48875,2.9875 2.5367,4.5 l 1.90537,2.75 h 6.3352 6.33519 l -11.26099,-26.25 -11.26099,-26.25 -9.6423,-0.28621 c -5.30326,-0.15742 -9.64229,-0.0661 -9.64229,0.20294 0,0.26904 0.49517,1.57595 1.10038,2.90425 l 1.10039,2.41509 5.7323,0.59914 c 6.4753,0.67681 9.06693,1.46907 9.06693,2.77178 v 0.89301 h -6.60699 -6.60699 l 0.46976,1.25 c 0.25837,0.6875 0.78684,2.2625 1.17438,3.5 l 0.70461,2.25 h -3.62362 -3.62362 l -1.99056,-4.5 -1.99056,-4.5 h -3.83076 -3.83077 l -1.04205,-1.2556 c -0.57312,-0.69057 -1.35201,-2.49057 -1.73085,-4 l -0.6888,-2.7444 h -9.74375 -9.74375 l 6.60216,21.53906 6.60216,21.53907 2.25,0.56934 c 2.56532,0.64913 2.90365,1.88322 0.83694,3.05284 l -1.41305,0.79969 0.52963,2.75 0.52963,2.75 h 10.88342 c 5.98588,0 10.88343,-0.21205 10.88343,-0.47121 z"
           id="path4537" /><path
           style="fill:#cccccc;stroke-width:0.627451"
           d="m 45.176471,450.05642 c 0,-0.24936 1.054032,-3.21407 2.342294,-6.58824 l 2.342295,-6.13485 H 67.168885 84.47671 l 1.055762,-3.34926 c 0.58067,-1.8421 1.055763,-3.50233 1.055763,-3.68942 0,-0.18708 -7.186009,-0.45415 -15.96891,-0.5935 -8.782901,-0.13934 -16.156246,-0.44069 -16.385212,-0.66965 -0.228965,-0.22897 0.928788,-3.80149 2.572786,-7.93894 l 2.989088,-7.52263 4.141222,-0.39027 c 8.571607,-0.8078 11.98436,-1.90265 11.98436,-3.84472 0,-0.67985 -1.420838,-0.86435 -6.656256,-0.86435 h -6.656256 l 0.400114,-1.59419 c 0.220064,-0.8768 0.976842,-3.13562 1.68173,-5.0196 l 1.281615,-3.42543 h 25.332864 25.33286 l -0.99101,3.29412 c -0.54505,1.81176 -1.18531,4 -1.4228,4.86275 l -0.4318,1.56862 -16.370256,0.16718 -16.37026,0.16717 -0.996645,2.92499 c -0.548155,1.60875 -0.996645,3.58058 -0.996645,4.38185 0,1.44323 0.07039,1.45685 7.529411,1.45685 h 7.529412 v 1.75686 c 0,1.6876 0.965024,3.26275 1.998941,3.26275 0.271182,0 1.240467,-1.12941 2.153968,-2.5098 l 1.660909,-2.50981 h 5.630805 c 4.24334,0 5.55828,0.19326 5.33647,0.78432 -0.1619,0.43137 -1.62038,5.16078 -3.24107,10.5098 -1.62069,5.34902 -3.78939,12.47843 -4.81933,15.84314 l -1.87262,6.11764 h -4.992665 -4.992663 v -3.45098 c 0,-1.89804 -0.25926,-3.45098 -0.576133,-3.45098 -1.605715,0 -2.762169,1.06592 -4.169427,3.84301 l -1.55009,3.05895 H 73.192744 61.700745 l -0.723565,-2.35294 c -0.549071,-1.78551 -0.54505,-3.21881 0.01668,-5.94341 1.414938,-6.86303 -1.166248,-5.60154 -5.150718,2.51729 l -2.823529,5.75327 -3.921569,0.0129 c -2.156863,0.007 -3.921568,-0.19113 -3.921568,-0.44049 z"
           id="path4539" /><path
           style="fill:#cccccc;stroke-width:0.627451"
           d="m 128,449.35447 c 0,-0.63543 1.28168,-6.35308 2.84818,-12.70588 4.28932,-17.39498 3.90066,-16.25643 5.54935,-16.25643 1.27666,0 3.52404,-1.68758 3.52404,-2.64625 0,-0.19324 -1.00236,-0.53939 -2.22747,-0.76922 -1.70222,-0.31934 -2.15452,-0.66871 -1.91809,-1.4816 0.17015,-0.58504 0.49869,-2.40489 0.73008,-4.04411 l 0.42071,-2.98039 h -6.9732 c -7.95841,0 -7.56055,0.40006 -5.95575,-5.9887 l 1.01746,-4.05052 h 24.47535 24.47535 l -0.4402,3.89084 c -0.52604,4.6496 -1.22839,6.14838 -2.88122,6.14838 -0.87709,0 -1.23283,-0.42714 -1.23283,-1.48029 0,-1.57346 -4.60699,-7.31085 -5.85724,-7.29442 -0.40205,0.005 -1.13171,0.26325 -1.62149,0.57325 -0.75156,0.47569 -0.67814,1.07462 0.47059,3.83877 0.7486,1.80132 1.36109,3.51011 1.36109,3.7973 0,0.28719 -1.39572,0.70731 -3.10159,0.93361 -3.09584,0.41067 -3.1027,0.41681 -3.70378,3.31572 -0.33121,1.59736 -2.22977,10.88076 -4.21902,20.62978 -3.15303,15.45255 -3.76428,17.72549 -4.76681,17.72549 -0.9469,0 -1.14998,-0.50531 -1.14998,-2.8614 v -2.86141 l -2.35294,0.19474 c -2.14637,0.17764 -2.43387,0.42886 -3.27477,2.86141 l -0.92183,2.66666 h -6.137 C 128.5946,450.5098 128,450.39787 128,449.35447 Z"
           id="path4540" /><path
           style="fill:#cccccc;stroke-width:0.627451"
           d="m 175.02874,450.03922 c -0.0165,-0.25883 1.74341,-11.97647 3.91102,-26.03922 l 3.9411,-25.56863 h 24.70783 24.70783 l -0.34698,2.03922 c -0.19084,1.12157 -0.66751,9.23921 -1.05927,18.03921 -0.39176,8.8 -0.82971,16.60574 -0.97322,17.34609 -0.24193,1.24804 -0.45549,1.30036 -2.93213,0.71831 -3.47971,-0.81779 -14.12286,-0.79578 -16.25538,0.0336 -1.42049,0.55247 -1.70892,0.46963 -1.98048,-0.56882 -0.28106,-1.07478 -0.89992,-1.21547 -5.34635,-1.21547 -5.81873,0 -5.15364,-0.98417 -6.46642,9.56863 l -0.76104,6.11764 h -10.55821 c -5.80702,0 -10.57176,-0.21176 -10.5883,-0.47058 z m 26.26886,-26.19608 c 0.63675,-1.39751 1.09264,-1.56863 4.17914,-1.56863 3.2771,0 3.46444,0.0848 3.46444,1.56863 0,1.44081 0.23006,1.56862 2.82353,1.56862 h 2.82353 v -5.96078 c 0,-5.93987 -0.006,-5.96078 -1.56863,-5.96078 -1.75168,0 -2.16302,-1.52001 -0.57614,-2.12895 0.54588,-0.20947 2.52235,-0.38086 4.39216,-0.38086 h 3.39966 v -3.47737 -3.47738 l -4.86274,0.18326 -4.86275,0.18326 -0.19294,2.66666 -0.19294,2.66667 h -3.72862 -3.72863 v -3.13725 -3.13726 l -2.9804,0.009 c -5.01411,0.0144 -5.69383,0.41187 -6.7423,3.94247 -0.51918,1.74828 -0.94397,3.26862 -0.94397,3.37853 0,0.10991 1.97647,0.19984 4.39216,0.19984 2.41568,0 4.39215,0.22588 4.39215,0.50196 0,0.97651 -1.52489,2.00785 -2.96871,2.00785 -1.77253,0 -1.85179,0.22648 -2.36056,6.74509 l -0.40403,5.17647 h 2.76594 c 2.34144,0 2.87562,-0.24074 3.48065,-1.56862 z"
           id="path4541" /><path
           style="fill:#cccccc;stroke-width:0.627451"
           d="m 256.62745,435.47293 c 0,-8.93547 0.23904,-15.08077 0.5866,-15.08077 0.32264,0 1.34814,-0.28954 2.27889,-0.64341 1.6401,-0.62356 1.65771,-0.68161 0.57105,-1.88235 -0.61667,-0.68142 -1.76988,-1.23895 -2.56267,-1.23895 -1.32994,0 -1.45589,-0.30334 -1.62824,-3.92157 l -0.18681,-3.92157 -7.59862,-0.17547 -7.59862,-0.17547 0.51247,-2.64806 c 0.28186,-1.45643 0.52477,-3.70688 0.5398,-5.001 l 0.0273,-2.35294 h 24.08973 c 27.41972,0 24.66065,-0.66648 25.29344,6.10992 0.36411,3.89926 0.35456,3.9293 -1.25016,3.9293 -1.05089,0 -1.75272,-0.42739 -2.00449,-1.22065 -0.55795,-1.75794 -7.10697,-7.56367 -8.53203,-7.56367 -0.66238,0 -1.20434,0.36825 -1.20434,0.81834 0,1.17208 3.61367,6.71108 4.37834,6.71108 0.3527,0 0.64127,0.28235 0.64127,0.62745 0,0.3451 -1.59437,0.62745 -3.54305,0.62745 h -3.54305 l 0.38046,4.54902 c 0.20925,2.50196 0.67685,10.33725 1.03911,17.41176 0.36227,7.07451 0.74463,14.48628 0.8497,16.47059 0.17774,3.35688 0.095,3.60784 -1.18953,3.60784 -1.15772,0 -1.44976,-0.46146 -1.80927,-2.85879 -0.4266,-2.84479 -0.44002,-2.85786 -2.73791,-2.66667 -2.18213,0.18156 -2.32647,0.33024 -2.62293,2.70193 l -0.31372,2.50981 -6.43138,0.17881 -6.43137,0.17881 z"
           id="path4542" /><path
           style="fill:#cccccc;stroke-width:0.627451"
           d="m 303.68627,449.31541 c 0,-1.47642 -4.22427,-44.53934 -4.7299,-48.21737 l -0.36659,-2.66667 h 9.76393 9.76394 l 0.009,2.66667 c 0.005,1.46667 0.17882,3.30196 0.38691,4.07843 0.33013,1.23188 0.1411,1.41177 -1.48356,1.41177 -3.29484,0 -5.81387,1.21826 -5.81387,2.81172 0,1.63617 1.36971,2.18606 5.47824,2.19932 3.18789,0.0103 2.61219,-1.95509 5.51633,18.83209 1.22943,8.8 2.39591,16.91765 2.59217,18.03922 0.35495,2.02842 0.34315,2.03921 -2.22823,2.03921 -1.87655,0 -3.29727,-0.51591 -5.18358,-1.88235 -1.42918,-1.03529 -3.26203,-1.88235 -4.073,-1.88235 -1.68509,0 -1.6835,-0.004 -0.86256,2.15523 l 0.61192,1.60947 h -4.69035 c -4.19285,0 -4.69036,-0.12668 -4.69036,-1.19439 z"
           id="path4543" /><path
           style="fill:#cccccc;stroke-width:0.627451"
           d="m 335.68627,448.99249 c 0,-0.83452 -0.17138,-1.96393 -0.38085,-2.5098 -0.24539,-0.63948 -0.0382,-0.99249 0.58263,-0.99249 0.98805,0 2.93548,-1.61115 2.93548,-2.42858 0,-0.25112 -0.97329,-0.80853 -2.16288,-1.23869 -1.18958,-0.43016 -2.30439,-1.26335 -2.47735,-1.85154 -0.17296,-0.58818 -1.60198,-9.25766 -3.17559,-19.26551 -1.57362,-10.00784 -3.01278,-19.11372 -3.19814,-20.23529 l -0.33702,-2.03922 h 11.86466 11.86467 l 1.7393,2.50981 c 0.95661,1.38039 1.95259,2.5098 2.21328,2.5098 0.26069,0 0.92589,-1.12941 1.47821,-2.5098 0.97184,-2.42885 1.09919,-2.50981 3.94846,-2.50981 1.71734,0 4.08922,0.55428 5.69191,1.33013 l 2.74767,1.33012 4.05184,-1.33012 c 2.22851,-0.73157 5.39906,-1.33013 7.04567,-1.33013 h 2.99382 l 2.7136,9.2549 c 1.49248,5.0902 2.84174,9.59743 2.99836,10.01608 0.16301,0.43575 -0.47199,0.94228 -1.48531,1.18479 -0.97353,0.23299 -2.00022,0.55379 -2.28152,0.71288 -0.97949,0.55397 1.65888,2.67449 3.3276,2.67449 1.65121,0 1.74396,0.22672 5.32616,13.01961 2.00512,7.16078 3.77925,13.51372 3.94252,14.11764 0.27979,1.03499 -1.49086,1.09804 -30.83517,1.09804 h -31.13201 z m 37.61399,-13.65682 c -0.3151,-1.09871 -0.48034,-2.09023 -0.36719,-2.20338 0.11315,-0.11315 4.20244,-0.38754 9.08731,-0.60975 4.88487,-0.22221 8.88158,-0.58935 8.88158,-0.81587 0,-0.22652 -0.83563,-1.02966 -1.85695,-1.78475 -1.62294,-1.19989 -2.65874,-1.3729 -8.2196,-1.3729 -6.34965,0 -6.36676,-0.004 -8.36357,-2.03922 -1.71508,-1.74791 -2.24954,-3.13718 -3.7415,-9.72549 l -1.74059,-7.68627 h -4.25795 c -2.34188,0 -6.45696,-0.18589 -9.14465,-0.41308 l -4.88669,-0.41307 0.43072,3.07974 c 0.23689,1.69386 1.44588,8.23268 2.68663,14.53072 l 2.25592,11.45098 h 9.90473 9.90473 z"
           id="path4544" /><path
           style="fill:#cccccc;stroke-width:0.627451"
           d="m 408.81703,449.72549 c -0.93424,-3.03251 -0.87239,-3.99682 0.30342,-4.73113 2.00134,-1.24985 1.56826,-3.14902 -0.82027,-3.59711 l -2.05276,-0.3851 -6.19779,-20.19235 c -3.40878,-11.10579 -6.32973,-20.68647 -6.491,-21.29039 -0.26979,-1.01026 0.46504,-1.09804 9.19172,-1.09804 8.60973,0 9.48622,0.10132 9.49872,1.09804 0.008,0.60392 0.55251,2.28469 1.21095,3.73504 l 1.19716,2.63699 4.21801,0.18654 4.21802,0.18653 1.94359,4.54128 1.94359,4.54127 3.92157,0.008 c 2.15686,0.004 3.92157,-0.23911 3.92157,-0.54082 0,-0.30171 -0.42353,-1.74898 -0.94118,-3.21615 -0.51764,-1.46716 -0.94117,-2.77325 -0.94117,-2.90241 0,-0.12916 2.84316,-0.23484 6.31815,-0.23484 6.19326,0 6.31418,-0.0279 6.11764,-1.41177 -0.22741,-1.60122 -3.33602,-2.56264 -10.59796,-3.27769 -3.94651,-0.3886 -4.15462,-0.49353 -4.86275,-2.45182 -0.40688,-1.12522 -0.73979,-2.23757 -0.73979,-2.4719 0,-0.23432 3.91837,-0.42604 8.70749,-0.42604 6.33236,0 8.89022,0.22019 9.37742,0.80723 0.59226,0.71363 22.07195,50.35613 22.07195,51.01129 0,0.14295 -2.66059,0.25991 -5.91242,0.25991 h -5.91242 l -2.24444,-3.58821 c -1.23444,-1.97351 -2.24444,-3.94998 -2.24444,-4.39215 0,-0.51761 -0.88059,-0.80395 -2.47243,-0.80395 h -2.47242 l 1.49387,4.39216 c 1.34396,3.95142 1.38743,4.39133 0.43321,4.38396 -0.72871,-0.006 -1.71968,-1.57659 -3.16638,-5.0196 l -2.10572,-5.01142 h -4.5662 c -4.03851,0 -4.60412,-0.14502 -4.89436,-1.2549 -0.31248,-1.19492 -0.0192,-1.25491 6.1342,-1.25491 5.31401,0 6.53004,-0.17636 6.84322,-0.99249 0.20947,-0.54587 0.38085,-1.08296 0.38085,-1.19352 0,-0.70625 -4.94952,-1.71708 -9.93936,-2.02989 -5.36709,-0.33647 -5.91747,-0.49155 -6.53208,-1.84047 -0.59276,-1.30096 -1.09919,-1.47304 -4.33516,-1.47304 -3.45966,0 -3.66399,0.0848 -3.66399,1.52146 0,0.83681 1.27059,5.17372 2.82353,9.6376 1.55294,4.46388 2.82353,8.29687 2.82353,8.51776 0,0.22089 -4.66768,0.40161 -10.37263,0.40161 -7.75094,0 -10.43371,-0.19823 -10.61426,-0.78431 z"
           id="path4545" /><path
           style="fill:#cccccc;stroke-width:0.627451"
           d="m 202.96774,450.08004 c 0.67997,-5.44225 1.14062,-6.23549 3.8844,-6.68884 4.92207,-0.81325 10.46279,-0.3921 14.01061,1.06497 3.17012,1.30195 3.46624,1.59608 3.63848,3.61404 0.10312,1.2082 -0.10166,2.95726 -0.45506,3.88679 l -0.64256,1.69006 h -10.44077 -10.44077 z"
           id="path4548"
           transform="translate(5.3969056,-2.8245634)" /></g></g></g></svg>
